<mxfile host="app.diagrams.net" modified="2023-09-01T16:40:47.150Z" agent="Mozilla/5.0 (X11; Linux x86_64; rv:109.0) Gecko/20100101 Firefox/112.0" etag="C0MFa-FM6ahOnzhohyYF" version="21.7.1" type="github">
  <diagram name="Página-1" id="tlx05CtD6t4nKpp1lsWZ">
    <mxGraphModel dx="1674" dy="767" grid="1" gridSize="10" guides="1" tooltips="1" connect="1" arrows="1" fold="1" page="1" pageScale="1" pageWidth="827" pageHeight="1169" math="0" shadow="0">
      <root>
        <mxCell id="0" />
        <mxCell id="1" parent="0" />
        <mxCell id="WyyBkXOLirh3etXSY0A9-4" value="&lt;div&gt;&lt;b&gt;Vendedor&lt;/b&gt;&lt;/div&gt;&lt;div&gt;&lt;br&gt;&lt;/div&gt;&lt;div&gt;codigo&lt;/div&gt;&lt;div&gt;nome&lt;/div&gt;&lt;div&gt;endereço&lt;/div&gt;&lt;div&gt;comissão&lt;br&gt;&lt;/div&gt;&lt;div&gt;&lt;br&gt;&lt;/div&gt;" style="rounded=1;whiteSpace=wrap;html=1;" parent="1" vertex="1">
          <mxGeometry x="190" y="160" width="140" height="120" as="geometry" />
        </mxCell>
        <mxCell id="WyyBkXOLirh3etXSY0A9-6" value="Atender" style="rhombus;whiteSpace=wrap;html=1;" parent="1" vertex="1">
          <mxGeometry x="370" y="200" width="80" height="40" as="geometry" />
        </mxCell>
        <mxCell id="WyyBkXOLirh3etXSY0A9-16" value="&lt;div&gt;&lt;b&gt;Cliente&lt;/b&gt;&lt;/div&gt;&lt;div&gt;&lt;br&gt;&lt;/div&gt;&lt;div&gt;Codigo&lt;/div&gt;&lt;div&gt;Nome&lt;/div&gt;&lt;div&gt;Endereço&lt;/div&gt;&lt;div&gt;F Acumulado&lt;/div&gt;&lt;div&gt;L de Conteudo&lt;br&gt;&lt;/div&gt;" style="rounded=1;whiteSpace=wrap;html=1;" parent="1" vertex="1">
          <mxGeometry x="510" y="160" width="120" height="130" as="geometry" />
        </mxCell>
        <mxCell id="WyyBkXOLirh3etXSY0A9-26" style="edgeStyle=orthogonalEdgeStyle;rounded=0;orthogonalLoop=1;jettySize=auto;html=1;exitX=0.5;exitY=1;exitDx=0;exitDy=0;" parent="1" edge="1">
          <mxGeometry relative="1" as="geometry">
            <mxPoint x="410" y="688" as="sourcePoint" />
            <mxPoint x="410" y="688" as="targetPoint" />
          </mxGeometry>
        </mxCell>
        <mxCell id="WyyBkXOLirh3etXSY0A9-30" style="edgeStyle=orthogonalEdgeStyle;rounded=0;orthogonalLoop=1;jettySize=auto;html=1;exitX=0.5;exitY=1;exitDx=0;exitDy=0;" parent="1" edge="1">
          <mxGeometry relative="1" as="geometry">
            <mxPoint x="410" y="688" as="sourcePoint" />
            <mxPoint x="410" y="688" as="targetPoint" />
          </mxGeometry>
        </mxCell>
        <mxCell id="WyyBkXOLirh3etXSY0A9-33" style="edgeStyle=orthogonalEdgeStyle;rounded=0;orthogonalLoop=1;jettySize=auto;html=1;exitX=0.5;exitY=1;exitDx=0;exitDy=0;" parent="1" edge="1">
          <mxGeometry relative="1" as="geometry">
            <mxPoint x="410" y="688" as="sourcePoint" />
            <mxPoint x="410" y="688" as="targetPoint" />
          </mxGeometry>
        </mxCell>
        <mxCell id="WyyBkXOLirh3etXSY0A9-35" value="&lt;div&gt;&lt;b&gt;Peça &lt;/b&gt;&lt;br&gt;&lt;/div&gt;&lt;div&gt;&lt;br&gt;&lt;/div&gt;&lt;div&gt;Código&lt;/div&gt;&lt;div&gt;Descrição&lt;/div&gt;&lt;div&gt;Preço&lt;/div&gt;&lt;div&gt;Quantidade&lt;br&gt;&lt;/div&gt;" style="rounded=1;whiteSpace=wrap;html=1;" parent="1" vertex="1">
          <mxGeometry x="360" y="350" width="120" height="120" as="geometry" />
        </mxCell>
        <mxCell id="0VX8GNFoNlM_amIT4pYe-2" value="Ter" style="rhombus;whiteSpace=wrap;html=1;rounded=1;" parent="1" vertex="1">
          <mxGeometry x="574" y="370" width="80" height="80" as="geometry" />
        </mxCell>
        <mxCell id="0VX8GNFoNlM_amIT4pYe-4" value="&lt;div&gt;&lt;b&gt;Armazenamento&lt;/b&gt;&lt;/div&gt;&lt;div&gt;&lt;br&gt;&lt;/div&gt;&lt;div&gt;Código&lt;/div&gt;&lt;div&gt;endereço&lt;br&gt;&lt;/div&gt;" style="whiteSpace=wrap;html=1;rounded=1;" parent="1" vertex="1">
          <mxGeometry x="714" y="380" width="120" height="60" as="geometry" />
        </mxCell>
        <mxCell id="fc-Yyg0KsU90s8uV8FDP-1" value="1" style="text;html=1;align=center;verticalAlign=middle;resizable=0;points=[];autosize=1;strokeColor=none;fillColor=none;" parent="1" vertex="1">
          <mxGeometry x="330" y="188" width="30" height="30" as="geometry" />
        </mxCell>
        <mxCell id="fc-Yyg0KsU90s8uV8FDP-2" value="" style="endArrow=none;html=1;rounded=0;exitX=1;exitY=0.5;exitDx=0;exitDy=0;entryX=0;entryY=0.5;entryDx=0;entryDy=0;" parent="1" source="0VX8GNFoNlM_amIT4pYe-2" target="0VX8GNFoNlM_amIT4pYe-4" edge="1">
          <mxGeometry width="50" height="50" relative="1" as="geometry">
            <mxPoint x="710" y="400" as="sourcePoint" />
            <mxPoint x="760" y="350" as="targetPoint" />
          </mxGeometry>
        </mxCell>
        <mxCell id="fc-Yyg0KsU90s8uV8FDP-3" value="" style="endArrow=none;html=1;rounded=0;exitX=0;exitY=0.5;exitDx=0;exitDy=0;entryX=1;entryY=0.5;entryDx=0;entryDy=0;" parent="1" source="0VX8GNFoNlM_amIT4pYe-2" target="WyyBkXOLirh3etXSY0A9-35" edge="1">
          <mxGeometry width="50" height="50" relative="1" as="geometry">
            <mxPoint x="710" y="400" as="sourcePoint" />
            <mxPoint x="760" y="350" as="targetPoint" />
          </mxGeometry>
        </mxCell>
        <mxCell id="fc-Yyg0KsU90s8uV8FDP-4" value="" style="endArrow=none;html=1;rounded=0;entryX=1;entryY=0.5;entryDx=0;entryDy=0;entryPerimeter=0;exitX=0;exitY=0.462;exitDx=0;exitDy=0;exitPerimeter=0;" parent="1" source="WyyBkXOLirh3etXSY0A9-16" target="WyyBkXOLirh3etXSY0A9-6" edge="1">
          <mxGeometry width="50" height="50" relative="1" as="geometry">
            <mxPoint x="710" y="400" as="sourcePoint" />
            <mxPoint x="760" y="350" as="targetPoint" />
          </mxGeometry>
        </mxCell>
        <mxCell id="fc-Yyg0KsU90s8uV8FDP-6" value="" style="endArrow=none;html=1;rounded=0;entryX=1;entryY=0.5;entryDx=0;entryDy=0;exitX=0;exitY=0.5;exitDx=0;exitDy=0;" parent="1" source="WyyBkXOLirh3etXSY0A9-6" target="WyyBkXOLirh3etXSY0A9-4" edge="1">
          <mxGeometry width="50" height="50" relative="1" as="geometry">
            <mxPoint x="710" y="400" as="sourcePoint" />
            <mxPoint x="760" y="350" as="targetPoint" />
          </mxGeometry>
        </mxCell>
        <mxCell id="fc-Yyg0KsU90s8uV8FDP-8" value="" style="endArrow=none;html=1;rounded=0;exitX=0.5;exitY=1;exitDx=0;exitDy=0;entryX=0.433;entryY=0.008;entryDx=0;entryDy=0;entryPerimeter=0;" parent="1" source="WyyBkXOLirh3etXSY0A9-6" target="WyyBkXOLirh3etXSY0A9-35" edge="1">
          <mxGeometry width="50" height="50" relative="1" as="geometry">
            <mxPoint x="710" y="400" as="sourcePoint" />
            <mxPoint x="760" y="350" as="targetPoint" />
          </mxGeometry>
        </mxCell>
        <mxCell id="fc-Yyg0KsU90s8uV8FDP-9" value="N" style="text;html=1;align=center;verticalAlign=middle;resizable=0;points=[];autosize=1;strokeColor=none;fillColor=none;" parent="1" vertex="1">
          <mxGeometry x="470" y="188" width="30" height="30" as="geometry" />
        </mxCell>
        <mxCell id="fc-Yyg0KsU90s8uV8FDP-10" value="1" style="text;html=1;align=center;verticalAlign=middle;resizable=0;points=[];autosize=1;strokeColor=none;fillColor=none;" parent="1" vertex="1">
          <mxGeometry x="405" y="260" width="30" height="30" as="geometry" />
        </mxCell>
        <mxCell id="fc-Yyg0KsU90s8uV8FDP-11" value="N" style="text;html=1;align=center;verticalAlign=middle;resizable=0;points=[];autosize=1;strokeColor=none;fillColor=none;" parent="1" vertex="1">
          <mxGeometry x="405" y="320" width="30" height="30" as="geometry" />
        </mxCell>
        <mxCell id="fc-Yyg0KsU90s8uV8FDP-12" value="N" style="text;html=1;align=center;verticalAlign=middle;resizable=0;points=[];autosize=1;strokeColor=none;fillColor=none;" parent="1" vertex="1">
          <mxGeometry x="520" y="380" width="30" height="30" as="geometry" />
        </mxCell>
        <mxCell id="fc-Yyg0KsU90s8uV8FDP-13" value="1" style="text;html=1;align=center;verticalAlign=middle;resizable=0;points=[];autosize=1;strokeColor=none;fillColor=none;" parent="1" vertex="1">
          <mxGeometry x="670" y="380" width="30" height="30" as="geometry" />
        </mxCell>
      </root>
    </mxGraphModel>
  </diagram>
</mxfile>
